<svg xmlns="http://www.w3.org/2000/svg" viewBox="0 0 2503.03 589.33"><defs><style>.cls-1{fill:#d59a3d;}</style></defs><title>Artboard 1</title><g id="Arcadian"><path class="cls-1" d="M1435,542.38v10.95h-62.85v-105h12.75v94Z"/><path class="cls-1" d="M1549.11,526.48h-48l-11.85,26.85h-13.8l49.2-106.2h.9l49.2,106.2h-14Zm-4.65-10.35-19.35-44.25-19.5,44.25Z"/><path class="cls-1" d="M1690.71,523c0,19-12,30.3-37.8,30.3h-36.15v-105h36.75c20.55,0,30.45,11.85,30.45,25.2,0,10-5.85,19-16,22C1681.56,498.58,1690.71,510.13,1690.71,523Zm-37.35-31.2c11.25,0,18.3-6.9,18.3-16.65s-6.45-15.9-18.15-15.9h-24v32.55Zm24.9,30.6c0-11.7-7.65-20.7-24.9-20.7h-23.85v40.65h23.1C1670.61,542.38,1678.26,535.48,1678.26,522.43Z"/><path class="cls-1" d="M1805.3,468.58l-10.95,4c-3.6-8-11.85-14.25-23.55-14.25-12.45,0-20.85,6.6-20.85,15.6,0,9.3,6,13,16.65,16.8l10.35,3.6c18.45,6.3,30.15,15,30.15,31.2,0,18.45-18.75,28.8-36.75,28.8-17.4,0-32.55-10-37.65-24.6l10.65-4.65a28.59,28.59,0,0,0,27,18.15c12.45,0,24.15-6.15,24.15-17.7s-8.7-15.75-20.4-19.8L1763.46,502c-15.15-5.25-26.25-12.6-26.25-28s14.7-26.7,33.6-26.7C1788.06,447.28,1800.36,457.63,1805.3,468.58Z"/><path class="cls-1" d="M227.82,324.32l-131.6-.19L76.56,370.49l-68.4-.1L133,90.58l58.8.09,124,280.18-68.4-.1ZM205.9,271.89,162.46,168.62,118.7,271.76Z"/><path class="cls-1" d="M494.46,161.12l-.09,60.4c-4.8-1.21-10.4-1.22-14.4-1.22-38.4-.06-69.24,27.5-72.5,65.89l-.12,84.8-63.2-.09.31-208,63.2.09-.08,50.8c9.65-31.18,33.68-53.95,70.48-53.89C483.66,159.9,489.26,159.91,494.46,161.12Z"/><path class="cls-1" d="M710.79,209.43l-48,22.73C652.37,223.35,644,215.34,622,215.3c-24,0-48.43,18.33-48.48,52.33,0,33.6,24.32,51.24,48.32,51.27,22,0,30.41-7.15,40.82-15.94l48.76,22.87C691,359.4,659.75,374.56,620.95,374.5c-46.4-.07-108.75-33.36-108.64-107,.11-72.4,62.56-107.9,109-107.84C659.26,159.76,691.24,175.81,710.79,209.43Z"/><path class="cls-1" d="M950.85,163.79l-.31,208-63.2-.09,0-20.8c-2.81,7.2-21.64,24.77-53.63,24.72-47.6-.07-102.35-34.15-102.24-108.55.11-71.6,55-107.12,102.56-107,32,0,50.77,18.47,53.56,22.88l0-19.2ZM890.3,267.3c0-33.6-21.12-51.63-47.12-51.67-27.2,0-50.43,18.33-50.48,51.52C792.65,301.55,815.82,320,843,320,869,320.07,890.25,302.1,890.3,267.3Z"/><path class="cls-1" d="M1204.55,89.37,1204.4,191l-.27,181.2-63.2-.09,0-20.8c-2.81,7.2-21.64,24.77-53.63,24.72-47.6-.07-102.35-34.15-102.24-108.55.11-71.6,55-107.12,102.56-107,32,0,50.77,18.47,53.56,22.88l.14-94Zm-60.66,178.31c0-33.6-21.12-51.63-47.12-51.67-27.2,0-50.43,18.33-50.48,51.52-.05,34.4,23.12,52.83,50.32,52.87C1122.61,320.44,1143.84,302.47,1143.89,267.67Z"/><path class="cls-1" d="M1308.13,372.32l-63.2-.09.31-208,63.2.09Zm.34-229.59-63.2-.09.08-53.2,63.2.09Z"/><path class="cls-1" d="M1562,164.7l-.31,208-63.2-.09,0-20.8c-2.81,7.2-21.64,24.77-53.64,24.72-47.6-.07-102.35-34.15-102.24-108.55.11-71.6,55-107.12,102.56-107,32,0,50.77,18.47,53.57,22.88l0-19.2ZM1501.48,268.2c0-33.6-21.12-51.63-47.12-51.67-27.2,0-50.43,18.33-50.47,51.52-.05,34.4,23.12,52.83,50.32,52.87C1480.2,321,1501.43,303,1501.48,268.2Z"/><path class="cls-1" d="M1808.69,253.86l-.18,119.2-63.2-.09.17-114.8c0-31.6-10.74-41.61-30.74-41.64-28.4,0-44.84,27.53-48.86,39.53l-.17,116.8-63.2-.09.31-208,63.2.09-.05,36c4-10,25.26-39.16,64.46-39.1C1769.23,161.8,1808.79,187.86,1808.69,253.86Z"/><path class="cls-1" d="M2050.24,226.45l-76.4,40.73,76.4,39.86V372.3l-166.8-94.61V256.23l166.8-94.61Z"/><path class="cls-1" d="M2485,256.23v21.46l-166.8,94.61V307l76.4-39.86-76.4-40.73V161.62Z"/><path class="cls-1" d="M2158.39,372.47h-54.45l111.52-211.14h54.45Z"/></g></svg>